<mxfile host="app.diagrams.net" modified="2023-12-29T09:19:03.155Z" agent="Mozilla/5.0 (Windows NT 10.0; Win64; x64) AppleWebKit/537.36 (KHTML, like Gecko) Chrome/120.0.0.0 Safari/537.36 Edg/120.0.0.0" etag="fnw0Y2bgTfk4vmyfgQZu" version="22.1.15" type="device">
  <diagram name="第 1 页" id="eGmYs3G1NPyIhkEY2_q3">
    <mxGraphModel dx="859" dy="605" grid="1" gridSize="10" guides="1" tooltips="1" connect="1" arrows="1" fold="1" page="1" pageScale="1" pageWidth="827" pageHeight="1169" math="0" shadow="0">
      <root>
        <mxCell id="0" />
        <mxCell id="1" parent="0" />
        <mxCell id="5GhJmIU84vTd4y_rUTIt-3" value="" style="edgeStyle=orthogonalEdgeStyle;rounded=0;orthogonalLoop=1;jettySize=auto;html=1;" edge="1" parent="1" source="5GhJmIU84vTd4y_rUTIt-1" target="5GhJmIU84vTd4y_rUTIt-2">
          <mxGeometry relative="1" as="geometry" />
        </mxCell>
        <mxCell id="5GhJmIU84vTd4y_rUTIt-1" value="开始" style="rounded=1;whiteSpace=wrap;html=1;" vertex="1" parent="1">
          <mxGeometry x="160" y="120" width="120" height="60" as="geometry" />
        </mxCell>
        <mxCell id="5GhJmIU84vTd4y_rUTIt-5" value="" style="edgeStyle=orthogonalEdgeStyle;rounded=0;orthogonalLoop=1;jettySize=auto;html=1;" edge="1" parent="1" source="5GhJmIU84vTd4y_rUTIt-2" target="5GhJmIU84vTd4y_rUTIt-4">
          <mxGeometry relative="1" as="geometry" />
        </mxCell>
        <mxCell id="5GhJmIU84vTd4y_rUTIt-2" value="选择包" style="rounded=0;whiteSpace=wrap;html=1;" vertex="1" parent="1">
          <mxGeometry x="160" y="240" width="120" height="60" as="geometry" />
        </mxCell>
        <mxCell id="5GhJmIU84vTd4y_rUTIt-7" value="" style="edgeStyle=orthogonalEdgeStyle;rounded=0;orthogonalLoop=1;jettySize=auto;html=1;" edge="1" parent="1" source="5GhJmIU84vTd4y_rUTIt-4" target="5GhJmIU84vTd4y_rUTIt-6">
          <mxGeometry relative="1" as="geometry" />
        </mxCell>
        <mxCell id="5GhJmIU84vTd4y_rUTIt-4" value="点击IP重组" style="rounded=0;whiteSpace=wrap;html=1;" vertex="1" parent="1">
          <mxGeometry x="160" y="380" width="120" height="60" as="geometry" />
        </mxCell>
        <mxCell id="5GhJmIU84vTd4y_rUTIt-9" value="" style="edgeStyle=orthogonalEdgeStyle;rounded=0;orthogonalLoop=1;jettySize=auto;html=1;" edge="1" parent="1" source="5GhJmIU84vTd4y_rUTIt-6" target="5GhJmIU84vTd4y_rUTIt-8">
          <mxGeometry relative="1" as="geometry" />
        </mxCell>
        <mxCell id="5GhJmIU84vTd4y_rUTIt-6" value="获取第一个数据包" style="rounded=0;whiteSpace=wrap;html=1;" vertex="1" parent="1">
          <mxGeometry x="160" y="520" width="120" height="60" as="geometry" />
        </mxCell>
        <mxCell id="5GhJmIU84vTd4y_rUTIt-11" value="" style="edgeStyle=orthogonalEdgeStyle;rounded=0;orthogonalLoop=1;jettySize=auto;html=1;entryX=0.5;entryY=0;entryDx=0;entryDy=0;" edge="1" parent="1" source="5GhJmIU84vTd4y_rUTIt-8" target="5GhJmIU84vTd4y_rUTIt-15">
          <mxGeometry relative="1" as="geometry">
            <mxPoint x="220" y="780" as="targetPoint" />
          </mxGeometry>
        </mxCell>
        <mxCell id="5GhJmIU84vTd4y_rUTIt-8" value="获取下一个数据包" style="rounded=0;whiteSpace=wrap;html=1;" vertex="1" parent="1">
          <mxGeometry x="160" y="660" width="120" height="60" as="geometry" />
        </mxCell>
        <mxCell id="5GhJmIU84vTd4y_rUTIt-19" style="edgeStyle=orthogonalEdgeStyle;rounded=0;orthogonalLoop=1;jettySize=auto;html=1;exitX=0.5;exitY=1;exitDx=0;exitDy=0;entryX=0.5;entryY=0;entryDx=0;entryDy=0;" edge="1" parent="1" source="5GhJmIU84vTd4y_rUTIt-15" target="5GhJmIU84vTd4y_rUTIt-18">
          <mxGeometry relative="1" as="geometry" />
        </mxCell>
        <mxCell id="5GhJmIU84vTd4y_rUTIt-15" value="进行包重组" style="whiteSpace=wrap;html=1;rounded=0;" vertex="1" parent="1">
          <mxGeometry x="160" y="810" width="120" height="60" as="geometry" />
        </mxCell>
        <mxCell id="5GhJmIU84vTd4y_rUTIt-20" style="edgeStyle=orthogonalEdgeStyle;rounded=0;orthogonalLoop=1;jettySize=auto;html=1;exitX=0;exitY=0.5;exitDx=0;exitDy=0;entryX=0;entryY=0.5;entryDx=0;entryDy=0;" edge="1" parent="1" source="5GhJmIU84vTd4y_rUTIt-18" target="5GhJmIU84vTd4y_rUTIt-8">
          <mxGeometry relative="1" as="geometry" />
        </mxCell>
        <mxCell id="5GhJmIU84vTd4y_rUTIt-21" value="否" style="edgeLabel;html=1;align=center;verticalAlign=middle;resizable=0;points=[];" vertex="1" connectable="0" parent="5GhJmIU84vTd4y_rUTIt-20">
          <mxGeometry x="-0.058" y="-1" relative="1" as="geometry">
            <mxPoint as="offset" />
          </mxGeometry>
        </mxCell>
        <mxCell id="5GhJmIU84vTd4y_rUTIt-23" style="edgeStyle=orthogonalEdgeStyle;rounded=0;orthogonalLoop=1;jettySize=auto;html=1;exitX=1;exitY=0.5;exitDx=0;exitDy=0;entryX=0.5;entryY=0;entryDx=0;entryDy=0;" edge="1" parent="1" source="5GhJmIU84vTd4y_rUTIt-18" target="5GhJmIU84vTd4y_rUTIt-22">
          <mxGeometry relative="1" as="geometry" />
        </mxCell>
        <mxCell id="5GhJmIU84vTd4y_rUTIt-24" value="是" style="edgeLabel;html=1;align=center;verticalAlign=middle;resizable=0;points=[];" vertex="1" connectable="0" parent="5GhJmIU84vTd4y_rUTIt-23">
          <mxGeometry x="0.1153" y="-1" relative="1" as="geometry">
            <mxPoint as="offset" />
          </mxGeometry>
        </mxCell>
        <mxCell id="5GhJmIU84vTd4y_rUTIt-18" value="判断是否是最后一个包" style="rhombus;whiteSpace=wrap;html=1;rounded=0;" vertex="1" parent="1">
          <mxGeometry x="150" y="940" width="140" height="90" as="geometry" />
        </mxCell>
        <mxCell id="5GhJmIU84vTd4y_rUTIt-27" value="" style="edgeStyle=orthogonalEdgeStyle;rounded=0;orthogonalLoop=1;jettySize=auto;html=1;" edge="1" parent="1" source="5GhJmIU84vTd4y_rUTIt-22" target="5GhJmIU84vTd4y_rUTIt-26">
          <mxGeometry relative="1" as="geometry" />
        </mxCell>
        <mxCell id="5GhJmIU84vTd4y_rUTIt-22" value="完成重组" style="rounded=0;whiteSpace=wrap;html=1;" vertex="1" parent="1">
          <mxGeometry x="520" y="240" width="120" height="60" as="geometry" />
        </mxCell>
        <mxCell id="5GhJmIU84vTd4y_rUTIt-29" style="edgeStyle=orthogonalEdgeStyle;rounded=0;orthogonalLoop=1;jettySize=auto;html=1;exitX=0.5;exitY=1;exitDx=0;exitDy=0;entryX=0.5;entryY=0;entryDx=0;entryDy=0;" edge="1" parent="1" source="5GhJmIU84vTd4y_rUTIt-26" target="5GhJmIU84vTd4y_rUTIt-28">
          <mxGeometry relative="1" as="geometry" />
        </mxCell>
        <mxCell id="5GhJmIU84vTd4y_rUTIt-26" value="更新界面" style="rounded=0;whiteSpace=wrap;html=1;" vertex="1" parent="1">
          <mxGeometry x="520" y="380" width="120" height="60" as="geometry" />
        </mxCell>
        <mxCell id="5GhJmIU84vTd4y_rUTIt-28" value="结束" style="rounded=1;whiteSpace=wrap;html=1;" vertex="1" parent="1">
          <mxGeometry x="520" y="550" width="120" height="60" as="geometry" />
        </mxCell>
      </root>
    </mxGraphModel>
  </diagram>
</mxfile>
